<?xml version="1.0" standalone="no"?>
<!DOCTYPE svg PUBLIC "-//W3C//DTD SVG 20010904//EN"
 "http://www.w3.org/TR/2001/REC-SVG-20010904/DTD/svg10.dtd">
<svg version="1.0" xmlns="http://www.w3.org/2000/svg"
 width="466.000000pt" height="448.000000pt" viewBox="0 0 466.000000 448.000000"
 preserveAspectRatio="xMidYMid meet">

<g transform="translate(0.000000,448.000000) scale(0.100000,-0.100000)"
fill="#000000" stroke="none">
<path d="M2138 4055 c-5 -5 -31 -9 -181 -32 -20 -3 -40 -9 -43 -14 -3 -5 -16
-9 -29 -9 -13 0 -27 -4 -30 -10 -3 -5 -17 -10 -30 -10 -13 0 -27 -4 -30 -10
-3 -5 -13 -10 -21 -10 -8 0 -34 -9 -56 -20 -23 -11 -48 -20 -55 -20 -7 0 -13
-4 -13 -10 0 -5 -9 -10 -20 -10 -11 0 -20 -3 -20 -8 0 -4 -15 -13 -32 -21 -18
-8 -67 -37 -108 -64 -322 -215 -557 -541 -655 -912 -74 -278 -62 -620 30 -900
43 -131 138 -312 224 -425 78 -103 245 -279 256 -269 3 3 -14 44 -36 90 -23
46 -46 95 -51 109 -6 14 -14 33 -19 42 -5 10 -9 27 -9 37 0 11 -4 23 -10 26
-5 3 -10 17 -10 30 0 13 -4 27 -10 30 -5 3 -10 21 -10 39 0 17 -4 36 -9 42
-21 21 -43 284 -37 430 6 130 12 175 43 304 105 445 418 843 820 1044 165 83
281 123 448 157 164 33 432 31 600 -4 154 -32 255 -66 384 -128 56 -28 105
-48 108 -46 7 8 -178 186 -252 242 -214 161 -435 254 -715 301 -81 13 -411 20
-422 9z"/>
<path d="M1640 3954 c-406 -151 -776 -460 -1004 -837 -61 -101 -127 -238 -122
-251 2 -6 8 0 14 14 18 43 134 205 202 282 72 81 201 198 270 245 25 17 63 53
84 79 80 98 255 264 319 302 15 9 27 20 27 24 0 4 5 8 11 8 6 0 23 8 37 19 15
10 44 28 65 40 20 11 53 30 72 41 20 11 42 20 50 20 8 0 15 5 15 10 0 6 9 10
19 10 11 0 23 5 26 10 9 15 -13 11 -85 -16z"/>
<path d="M3104 3907 c238 -151 367 -262 500 -434 26 -34 66 -74 88 -88 60 -40
266 -249 326 -330 28 -38 68 -99 89 -134 50 -86 53 -64 4 37 -195 397 -526
728 -923 922 -76 38 -126 53 -84 27z"/>
<path d="M3332 2892 c2 -4 20 -43 42 -87 21 -44 42 -89 46 -100 4 -11 12 -31
18 -45 46 -111 77 -257 94 -437 19 -217 -19 -498 -93 -680 -5 -13 -13 -33 -18
-45 -79 -199 -221 -410 -372 -553 -155 -147 -297 -240 -499 -329 -41 -18 -202
-71 -243 -80 -132 -30 -216 -38 -382 -38 -153 0 -198 4 -300 25 -154 32 -254
66 -384 128 -56 28 -105 48 -108 45 -11 -10 196 -203 285 -266 215 -151 457
-247 712 -280 106 -14 375 -8 475 10 33 6 77 13 98 16 20 4 40 10 43 15 3 5
16 9 29 9 13 0 27 5 30 10 3 6 15 10 26 10 10 0 27 4 37 9 9 5 28 13 42 19
105 41 332 169 360 201 3 3 23 19 44 35 49 37 178 165 232 231 133 161 261
420 305 613 42 190 53 466 24 632 -45 254 -148 494 -295 686 -82 107 -268 291
-248 246z"/>
<path d="M4150 2840 c0 -5 5 -10 11 -10 5 0 7 5 4 10 -3 6 -8 10 -11 10 -2 0
-4 -4 -4 -10z"/>
<path d="M1342 2258 c-135 -66 -135 -232 0 -305 25 -13 63 -18 159 -21 l126
-4 31 38 c18 21 32 42 32 46 0 5 -61 8 -136 8 -136 0 -166 6 -191 39 -21 28
-15 75 13 102 23 22 35 24 139 28 l113 3 31 38 c17 22 31 41 31 44 0 3 -69 6
-152 6 -134 -1 -158 -4 -196 -22z"/>
<path d="M1740 2105 l0 -176 53 3 52 3 0 170 0 170 -52 3 -53 3 0 -176z"/>
<path d="M1958 2246 c-16 -19 -28 -39 -28 -45 0 -6 65 -11 165 -13 134 -2 168
-6 175 -18 12 -19 12 -21 0 -40 -7 -12 -43 -16 -182 -20 l-173 -5 0 -85 0 -85
52 -3 52 -3 3 43 3 43 81 3 80 3 43 -46 c42 -44 43 -45 107 -45 35 0 64 4 64
8 0 4 -18 26 -40 47 -22 21 -40 43 -40 47 0 5 16 24 35 44 29 29 35 42 35 79
0 55 -33 97 -88 113 -22 7 -101 12 -178 12 l-139 0 -27 -34z"/>
<path d="M2522 2258 c-113 -55 -124 -226 -19 -294 68 -44 216 -55 320 -24 91
27 143 117 118 209 -26 99 -90 131 -259 131 -97 -1 -124 -4 -160 -22z m243
-69 c57 -14 67 -27 67 -86 0 -72 -19 -83 -146 -83 -70 1 -107 5 -119 15 -26
19 -34 88 -13 120 27 41 122 56 211 34z"/>
<path d="M3004 2267 c-2 -7 -3 -85 -2 -172 l3 -160 53 -3 52 -3 0 65 0 66 105
0 104 0 3 -62 3 -63 50 0 50 0 3 173 2 173 -52 -3 -53 -3 -3 -57 -3 -58 -104
0 -105 0 0 60 0 60 -50 0 c-32 0 -52 -5 -56 -13z"/>
<path d="M1210 1636 c0 -9 5 -16 10 -16 6 0 10 4 10 9 0 6 -4 13 -10 16 -5 3
-10 -1 -10 -9z"/>
<path d="M1230 1590 c0 -11 4 -28 9 -38 5 -9 13 -28 19 -42 32 -81 107 -222
137 -261 32 -42 172 -128 298 -183 69 -31 75 -21 9 15 -154 86 -341 284 -429
457 -20 39 -38 72 -40 72 -2 0 -3 -9 -3 -20z"/>
<path d="M502 1345 c163 -386 454 -723 811 -939 101 -61 238 -127 251 -122 6
2 0 8 -14 14 -43 18 -205 134 -282 202 -41 36 -110 107 -153 159 -101 118
-119 136 -191 193 -79 63 -137 119 -210 203 -58 67 -184 246 -184 262 0 4 -9
19 -20 33 l-21 25 13 -30z"/>
<path d="M4150 1359 c0 -5 5 -7 10 -4 6 3 10 8 10 11 0 2 -4 4 -10 4 -5 0 -10
-5 -10 -11z"/>
<path d="M4110 1285 c-91 -159 -270 -357 -426 -473 -40 -29 -89 -74 -110 -100
-40 -50 -188 -200 -240 -243 -39 -33 -199 -140 -239 -159 -16 -8 -32 -17 -35
-20 -12 -12 -51 -30 -65 -30 -8 0 -15 -4 -15 -10 0 -5 -9 -10 -19 -10 -11 0
-23 -4 -26 -10 -9 -15 3 -13 75 14 459 167 851 516 1083 964 61 120 74 177 17
77z"/>
<path d="M2890 209 c0 -5 5 -7 10 -4 6 3 10 8 10 11 0 2 -4 4 -10 4 -5 0 -10
-5 -10 -11z"/>
</g>
</svg>
