<?xml version="1.0" standalone="no"?>
<!DOCTYPE svg PUBLIC "-//W3C//DTD SVG 20010904//EN"
 "http://www.w3.org/TR/2001/REC-SVG-20010904/DTD/svg10.dtd">
<svg version="1.0" xmlns="http://www.w3.org/2000/svg"
 width="512.000000pt" height="512.000000pt" viewBox="0 0 512.000000 512.000000"
 preserveAspectRatio="xMidYMid meet">

<g transform="translate(0.000000,512.000000) scale(0.100000,-0.100000)"
fill="#000000" stroke="none">
<path d="M2160 5109 c-571 -35 -1063 -143 -1405 -308 -165 -79 -255 -140 -356
-240 -68 -68 -94 -103 -125 -166 l-39 -80 -3 -1741 -2 -1741 25 -68 c45 -120
134 -224 267 -313 336 -224 816 -362 1498 -429 245 -24 846 -24 1085 0 409 42
715 101 1001 196 417 138 676 324 759 546 l25 66 -2 1742 -3 1742 -39 80 c-31
63 -57 98 -125 166 -101 100 -191 161 -356 240 -351 169 -831 272 -1432 309
-196 11 -574 11 -773 -1z m985 -203 c809 -88 1388 -306 1531 -576 26 -50 24
-143 -4 -197 -125 -239 -667 -458 -1352 -547 -268 -35 -381 -41 -760 -41 -379
0 -492 6 -760 41 -596 78 -1072 247 -1280 455 -70 70 -94 120 -94 194 0 96 50
173 176 266 226 167 653 307 1153 378 121 17 190 24 445 45 117 10 813 -3 945
-18z m-2570 -1139 c250 -160 626 -283 1075 -351 552 -84 1268 -84 1820 0 519
79 944 233 1188 431 l42 34 0 -394 c0 -457 1 -453 -87 -548 -229 -247 -780
-422 -1573 -501 -192 -19 -794 -16 -1010 5 -737 72 -1300 256 -1523 496 -88
95 -87 91 -87 548 l0 394 43 -34 c23 -19 74 -55 112 -80z m-22 -1102 c310
-212 826 -353 1497 -410 245 -21 769 -21 1020 0 737 61 1273 223 1598 482 l32
26 0 -399 0 -399 -24 -52 c-97 -207 -500 -402 -1061 -512 -340 -67 -632 -93
-1045 -93 -599 -1 -1085 67 -1510 209 -328 110 -548 251 -616 396 l-24 52 0
399 0 399 33 -26 c17 -15 62 -47 100 -72z m-98 -1045 c33 -37 189 -133 299
-186 317 -150 757 -252 1276 -296 205 -17 855 -17 1060 0 408 35 774 107 1075
212 173 61 415 190 496 266 14 13 28 24 32 24 4 0 7 -179 7 -397 l0 -398 -25
-54 c-106 -226 -634 -453 -1275 -545 -306 -44 -405 -50 -840 -50 -435 0 -534
6 -840 50 -641 92 -1169 319 -1275 545 l-25 54 0 398 c0 218 4 397 8 397 5 0
17 -9 27 -20z"/>
</g>
</svg>
