<?xml version="1.0" standalone="no"?>
<!DOCTYPE svg PUBLIC "-//W3C//DTD SVG 20010904//EN"
 "http://www.w3.org/TR/2001/REC-SVG-20010904/DTD/svg10.dtd">
<svg version="1.0" xmlns="http://www.w3.org/2000/svg"
 width="512.000000pt" height="512.000000pt" viewBox="0 0 512.000000 512.000000"
 preserveAspectRatio="xMidYMid meet">

<g transform="translate(0.000000,512.000000) scale(0.100000,-0.100000)"
fill="#000000" stroke="none">
<path d="M1945 5108 c-2 -7 -19 -114 -37 -237 l-33 -224 -78 -28 c-43 -16
-111 -44 -153 -63 l-75 -35 -190 139 c-104 77 -192 140 -196 140 -10 0 -863
-853 -863 -863 0 -4 63 -92 140 -196 l139 -190 -35 -75 c-19 -42 -47 -110 -63
-153 l-28 -78 -234 -35 -234 -35 0 -615 0 -615 234 -35 234 -35 28 -78 c16
-43 44 -111 63 -153 l35 -75 -139 -190 c-77 -104 -140 -192 -140 -196 0 -10
853 -863 863 -863 4 0 92 63 196 140 l190 139 75 -35 c42 -19 110 -47 153 -63
l78 -28 35 -234 35 -234 615 0 615 0 35 234 35 234 78 28 c43 16 111 44 153
63 l75 35 190 -139 c104 -77 192 -140 196 -140 10 0 863 853 863 863 0 4 -63
92 -140 196 l-139 190 35 75 c19 42 47 110 63 153 l28 78 234 35 234 35 0 615
0 615 -234 35 -234 35 -28 78 c-16 43 -44 111 -63 153 l-35 75 139 190 c77
104 140 192 140 196 0 10 -853 863 -863 863 -4 0 -92 -63 -196 -140 l-190
-139 -75 35 c-42 19 -110 47 -153 63 l-78 28 -35 234 -35 234 -613 3 c-485 2
-613 0 -617 -10z m999 -470 c15 -101 30 -192 32 -203 4 -16 36 -30 156 -69 96
-31 204 -75 299 -123 l148 -75 133 99 c73 54 147 108 164 120 l30 22 252 -252
252 -252 -121 -163 -120 -164 74 -148 c48 -94 92 -202 123 -298 39 -120 53
-152 69 -156 11 -2 102 -17 203 -32 l182 -28 0 -356 0 -356 -182 -28 c-101
-15 -192 -30 -203 -32 -16 -4 -30 -36 -69 -156 -31 -96 -75 -204 -123 -299
l-75 -148 99 -133 c54 -73 108 -147 120 -164 l22 -30 -252 -252 -252 -252
-163 121 -164 120 -148 -74 c-94 -48 -202 -92 -298 -123 -120 -39 -152 -53
-156 -69 -2 -11 -17 -102 -32 -203 l-28 -182 -356 0 -356 0 -28 183 c-15 100
-30 191 -32 202 -4 16 -36 30 -156 69 -96 31 -204 75 -298 123 l-148 74 -164
-120 -163 -121 -252 252 -252 252 22 30 c12 17 66 91 120 164 l99 133 -75 148
c-48 95 -92 203 -123 299 -39 120 -53 152 -69 156 -11 2 -102 17 -202 32
l-183 28 0 356 0 356 183 28 c100 15 191 30 202 32 16 4 30 36 69 156 31 96
75 204 123 298 l74 148 -120 164 -121 163 252 252 252 252 30 -22 c17 -12 91
-66 164 -120 l133 -99 148 75 c95 48 203 92 299 123 120 39 152 53 156 69 2
11 17 102 32 203 l28 182 356 0 356 0 28 -182z"/>
<path d="M2413 3789 c-155 -18 -343 -81 -477 -161 -700 -413 -823 -1369 -250
-1942 573 -572 1530 -450 1942 249 314 534 177 1231 -318 1610 -251 191 -579
281 -897 244z m294 -304 c203 -33 371 -120 518 -269 152 -154 240 -336 266
-553 24 -193 -24 -411 -127 -586 -66 -110 -211 -255 -321 -321 -108 -63 -251
-112 -380 -127 -193 -24 -411 24 -586 127 -110 66 -255 211 -321 321 -103 175
-151 393 -127 586 26 217 114 399 266 553 219 221 510 318 812 269z"/>
</g>
</svg>
