<?xml version="1.0" standalone="no"?>
<!DOCTYPE svg PUBLIC "-//W3C//DTD SVG 20010904//EN"
 "http://www.w3.org/TR/2001/REC-SVG-20010904/DTD/svg10.dtd">
<svg version="1.0" xmlns="http://www.w3.org/2000/svg"
 width="1024.000000pt" height="1024.000000pt" viewBox="0 0 1024.000000 1024.000000"
 preserveAspectRatio="xMidYMid meet">

<g transform="translate(0.000000,1024.000000) scale(0.100000,-0.100000)"
fill="#000000" stroke="none">
<path d="M5191 10218 c-5 -13 -33 -98 -62 -190 -30 -93 -56 -168 -59 -168 -3
0 -33 82 -66 183 l-60 182 -49 3 -48 3 6 -98 c4 -54 7 -155 7 -225 l0 -128 25
0 25 0 1 188 0 187 20 -55 c121 -347 109 -320 140 -320 28 0 29 2 91 193 l63
192 3 -192 2 -193 30 0 30 0 0 93 c0 52 -3 155 -7 230 l-6 137 -39 0 c-31 0
-40 -5 -47 -22z"/>
<path d="M4535 10203 c-71 -8 -131 -16 -132 -17 -1 -1 1 -12 4 -25 6 -23 9
-23 75 -17 37 3 68 5 69 4 1 -2 11 -91 22 -198 l22 -195 28 -3 c24 -3 27 0 27
28 0 33 -27 294 -35 347 l-6 31 76 7 c61 6 75 10 71 22 -3 8 -6 19 -6 24 0 12
-57 10 -215 -8z"/>
<path d="M5515 10207 c-40 -19 -90 -76 -106 -124 -21 -60 -18 -180 6 -227 44
-86 156 -133 255 -106 168 45 213 342 67 438 -34 22 -53 27 -116 30 -48 1 -87
-3 -106 -11z m169 -52 c50 -24 76 -79 76 -161 -1 -125 -56 -198 -150 -198 -58
0 -107 27 -135 74 -15 27 -20 51 -19 105 2 122 59 195 152 195 24 0 59 -7 76
-15z"/>
<path d="M4150 10143 c-25 -4 -26 -7 -64 -239 -22 -129 -36 -237 -33 -240 3
-4 17 -4 30 0 22 5 25 13 32 70 3 36 12 69 18 74 16 12 162 36 175 28 6 -3 24
-31 41 -61 29 -51 34 -55 59 -49 15 4 28 8 30 9 6 5 -245 409 -254 410 -5 1
-20 0 -34 -2z m104 -204 l27 -47 -66 -12 c-36 -7 -68 -10 -72 -7 -6 6 16 176
25 191 4 8 27 -26 86 -125z"/>
<path d="M5998 10132 c-33 -20 -58 -68 -58 -110 0 -43 32 -75 124 -124 95 -52
122 -82 107 -122 -13 -33 -69 -59 -109 -50 -78 17 -112 48 -112 102 0 28 -17
41 -52 42 -14 0 -8 -71 8 -106 31 -64 147 -107 231 -85 77 21 119 104 89 175
-12 29 -29 42 -96 76 -45 23 -93 52 -106 65 -60 61 3 130 95 105 50 -13 81
-45 81 -81 0 -26 15 -39 46 -39 10 0 14 12 14 39 0 47 -37 96 -87 117 -46 20
-142 17 -175 -4z"/>
<path d="M6352 9854 c-35 -119 -62 -218 -60 -219 2 -2 14 -6 28 -10 25 -6 27
-3 49 77 13 46 27 87 31 91 4 5 41 -1 82 -12 89 -25 110 -26 149 -5 34 17 68
82 69 127 0 42 -25 82 -62 100 -34 16 -197 67 -214 67 -5 0 -37 -97 -72 -216z
m193 126 c70 -24 95 -45 95 -77 0 -27 -17 -64 -34 -75 -27 -19 -186 12 -186
36 0 10 23 92 35 124 6 17 22 15 90 -8z"/>
<path d="M3457 9954 c-68 -22 -107 -40 -104 -47 2 -7 34 -103 71 -214 37 -112
71 -203 75 -203 18 0 187 62 210 77 88 57 103 170 41 299 -34 70 -54 91 -107
110 -54 19 -65 17 -186 -22z m203 -63 c36 -37 70 -125 70 -180 0 -49 -32 -93
-85 -117 -76 -35 -110 -40 -120 -17 -19 47 -104 307 -101 310 12 13 119 42
155 42 39 1 49 -4 81 -38z"/>
<path d="M6760 9730 c-46 -115 -81 -212 -79 -215 3 -2 16 -6 29 -7 21 -3 27 7
57 82 19 47 38 89 43 94 9 9 220 -70 220 -82 0 -4 -17 -49 -37 -100 -31 -79
-35 -95 -22 -103 7 -5 21 -8 28 -6 9 1 48 84 97 207 81 203 82 205 61 217 -12
7 -25 12 -28 13 -3 0 -21 -38 -39 -85 -18 -47 -37 -85 -41 -85 -8 0 -211 79
-216 84 -2 1 13 40 31 87 19 46 31 87 28 90 -4 4 -16 10 -28 13 -19 6 -28 -12
-104 -204z"/>
<path d="M3177 9848 c-14 -12 -8 -29 58 -175 40 -90 72 -163 69 -163 -2 0 -83
52 -179 115 -97 63 -181 115 -188 115 -7 -1 -22 -6 -34 -13 -21 -12 -20 -15
69 -212 49 -110 92 -203 96 -207 4 -4 17 -1 29 5 22 12 22 13 -43 157 -36 80
-70 155 -74 167 -6 15 43 -13 176 -98 183 -119 184 -119 213 -104 l29 15 -91
204 c-51 113 -97 205 -103 206 -5 0 -18 -6 -27 -12z"/>
<path d="M7207 9545 l-104 -207 147 -73 147 -74 11 25 c11 23 9 26 -108 84
l-120 60 35 70 c19 39 38 70 40 70 3 0 53 -25 110 -56 103 -55 104 -55 115
-33 14 26 19 21 -107 87 -51 26 -93 52 -93 57 0 6 14 34 30 62 l30 53 119 -59
118 -60 11 25 c11 23 9 25 -71 65 -45 23 -110 57 -144 76 l-62 34 -104 -206z"/>
<path d="M2617 9574 c-23 -13 -27 -20 -23 -42 3 -15 20 -112 36 -217 42 -264
37 -248 74 -220 17 13 17 19 7 81 -14 78 -16 75 80 128 l65 36 53 -45 c59 -50
57 -49 90 -31 23 13 19 17 -162 170 -102 86 -187 156 -189 156 -2 -1 -16 -8
-31 -16z m118 -126 c39 -33 71 -64 73 -68 4 -12 -109 -73 -118 -63 -4 4 -12
42 -19 83 -7 41 -15 83 -17 93 -9 28 8 20 81 -45z"/>
<path d="M4955 9520 c-652 -33 -1234 -181 -1783 -455 -445 -222 -785 -467
-1137 -820 -105 -104 -225 -233 -267 -285 -100 -125 -198 -262 -198 -277 0 -7
19 -22 42 -34 143 -73 344 -233 543 -433 242 -243 399 -435 675 -826 228 -322
360 -503 496 -680 619 -804 1132 -1210 1704 -1351 81 -20 122 -23 275 -23 205
-1 239 6 390 80 220 109 560 424 784 728 195 264 308 460 671 1169 357 696
577 1006 875 1230 119 89 312 185 445 222 58 16 107 30 109 32 16 11 -165 229
-333 402 -355 363 -757 656 -1222 889 -414 208 -929 356 -1434 412 -95 11
-428 31 -465 28 -11 0 -88 -4 -170 -8z m-1120 -1709 c51 -23 111 -89 124 -138
7 -24 11 -210 11 -515 l0 -478 -125 0 -125 0 0 457 c0 411 -2 458 -17 475 -13
15 -31 18 -101 18 -134 0 -122 47 -122 -492 l0 -458 -125 0 -125 0 0 575 0
575 283 0 c251 0 286 -2 322 -19z m956 -8 c35 -19 64 -43 84 -71 l30 -44 3
-411 c2 -279 0 -424 -8 -450 -14 -48 -62 -102 -112 -128 -36 -19 -56 -20 -257
-17 l-218 3 -39 27 c-21 15 -50 44 -64 65 l-25 37 -3 420 c-2 368 -1 426 13
463 19 48 83 109 130 122 16 5 116 10 221 10 189 1 191 1 245 -26z m909 17
c47 -13 106 -63 130 -111 19 -36 20 -60 20 -534 l0 -495 -120 0 -120 0 -2 228
-3 227 -117 3 -118 3 0 -231 0 -230 -125 0 -126 0 3 498 3 499 30 48 c22 36
45 57 84 77 53 28 55 28 240 28 102 0 202 -4 221 -10z m965 -9 c51 -23 111
-89 124 -138 7 -24 11 -210 11 -515 l0 -478 -125 0 -125 0 0 230 0 230 -120 0
-120 0 0 -230 0 -230 -125 0 -125 0 0 473 c0 534 1 545 67 609 64 63 85 67
303 67 168 1 201 -2 235 -18z"/>
<path d="M4442 7618 c-17 -17 -17 -709 0 -726 16 -16 190 -16 206 0 9 9 12
104 12 365 0 338 -1 353 -19 363 -28 14 -184 13 -199 -2z"/>
<path d="M5386 7615 c-13 -13 -16 -40 -16 -146 l0 -129 120 0 120 0 0 118 c0
74 -5 126 -13 142 -12 24 -18 25 -104 28 -73 2 -94 0 -107 -13z"/>
<path d="M6327 7612 c-14 -15 -17 -41 -17 -145 l0 -127 120 0 120 0 0 128 c0
162 0 162 -122 162 -70 0 -88 -3 -101 -18z"/>
<path d="M7590 9349 c-63 -100 -117 -186 -119 -191 -3 -8 27 -37 39 -38 3 0
28 36 55 80 28 44 54 80 58 80 10 0 94 -56 125 -83 30 -28 28 -45 -14 -124
l-36 -68 22 -17 c23 -19 55 -25 45 -8 -3 5 11 42 31 81 27 56 35 80 31 106 -5
31 -4 33 22 33 36 0 77 41 93 92 19 64 -4 97 -122 173 -55 36 -103 65 -107 65
-5 0 -60 -82 -123 -181z m217 64 c72 -45 89 -73 73 -114 -17 -40 -53 -63 -86
-55 -38 10 -145 79 -140 92 2 6 20 36 41 68 23 36 40 54 48 49 7 -4 36 -22 64
-40z"/>
<path d="M7960 9108 c-69 -94 -128 -177 -132 -184 -5 -7 2 -18 16 -28 l25 -16
130 180 c72 99 131 184 131 190 0 8 -31 30 -42 30 -2 0 -59 -77 -128 -172z"/>
<path d="M2103 9245 c-57 -29 -94 -70 -113 -129 -38 -115 74 -286 208 -317 77
-18 179 37 222 120 18 34 15 112 -5 151 l-17 33 -21 -21 c-18 -18 -19 -25 -9
-47 33 -73 -15 -159 -102 -181 -85 -21 -225 115 -226 221 0 40 32 90 72 115
37 22 107 27 126 8 9 -9 17 -8 37 2 32 17 28 28 -15 52 -48 25 -97 23 -157 -7z"/>
<path d="M8202 9097 c-49 -15 -127 -90 -156 -149 -33 -66 -35 -141 -6 -199 23
-45 94 -95 148 -105 42 -8 103 9 138 39 25 22 25 23 6 40 -19 17 -21 17 -53
-2 -60 -37 -133 -22 -178 35 -26 33 -28 110 -5 157 20 40 81 104 116 123 63
33 148 6 189 -58 15 -26 19 -43 14 -78 -4 -38 -2 -47 15 -58 19 -12 22 -9 36
24 32 77 -15 172 -108 218 -55 27 -100 31 -156 13z"/>
<path d="M1795 8990 c-20 -22 -37 2 155 -220 112 -129 124 -140 142 -128 11 7
20 17 21 22 1 10 -283 344 -294 345 -3 1 -14 -8 -24 -19z"/>
<path d="M1652 8868 c-7 -7 -12 -17 -12 -22 0 -6 57 -68 126 -137 l126 -126
-213 48 -214 48 -25 -25 -25 -24 162 -162 c161 -161 162 -162 183 -143 l21 19
-126 126 c-69 69 -125 128 -125 131 0 3 94 -15 210 -40 205 -44 210 -44 230
-26 11 10 19 22 18 26 -5 13 -307 319 -316 319 -4 0 -13 -5 -20 -12z"/>
<path d="M8725 8576 c-55 -23 -153 -64 -218 -90 l-118 -49 21 -22 21 -23 67
29 67 28 33 -32 c19 -18 47 -49 64 -70 l30 -37 -31 -55 c-36 -64 -38 -76 -12
-99 19 -18 22 -13 130 202 l110 220 -23 21 c-12 11 -26 21 -32 20 -5 0 -54
-20 -109 -43z m85 -31 c0 -11 -80 -164 -88 -169 -5 -3 -30 17 -57 44 l-49 49
65 29 c35 15 75 33 89 39 28 13 40 15 40 8z"/>
<path d="M1227 8412 c-10 -10 -17 -24 -17 -31 0 -7 52 -105 116 -217 112 -196
118 -204 135 -188 25 23 25 27 -17 95 l-36 59 53 63 c29 34 56 66 59 70 4 4
38 -4 76 -18 l68 -26 18 23 c9 13 14 26 10 29 -4 4 -59 25 -122 47 -63 22
-161 56 -216 76 -56 20 -103 36 -106 36 -3 0 -12 -8 -21 -18z m148 -83 c44
-16 84 -34 88 -38 6 -6 -32 -61 -73 -105 -6 -6 -110 152 -110 169 0 9 16 5 95
-26z"/>
<path d="M8877 8234 l-177 -135 60 -79 c70 -91 98 -116 152 -131 45 -12 86 -5
143 24 122 62 179 157 151 252 -13 40 -128 205 -144 205 -4 0 -87 -61 -185
-136z m227 7 c54 -74 62 -103 41 -157 -19 -51 -91 -114 -151 -134 -58 -19 -97
-6 -149 52 -75 83 -79 71 68 185 73 56 137 102 144 102 6 1 28 -21 47 -48z"/>
<path d="M1037 8172 c-8 -9 -49 -68 -92 -130 -65 -96 -75 -116 -64 -127 32
-30 350 -246 359 -243 5 2 49 61 99 133 88 126 89 129 69 144 -25 17 -30 11
-120 -121 -29 -43 -57 -78 -61 -78 -5 0 -35 19 -68 41 l-58 42 69 100 c69 99
69 101 49 115 -12 9 -24 11 -28 5 -3 -5 -35 -50 -70 -101 l-63 -92 -54 38
c-30 20 -54 41 -54 46 0 4 29 50 65 102 79 112 80 116 56 131 -15 10 -22 9
-34 -5z"/>
<path d="M9166 7855 c-104 -63 -190 -116 -192 -118 -1 -1 5 -12 14 -24 l17
-22 110 67 c61 38 133 81 160 98 l50 29 -20 -26 c-11 -14 -67 -80 -125 -148
-58 -67 -106 -126 -108 -130 -1 -4 5 -17 15 -28 l18 -21 190 43 c104 24 190
43 191 42 2 -1 -68 -45 -153 -97 -86 -53 -158 -100 -159 -105 -2 -6 3 -18 10
-28 12 -16 28 -9 197 94 101 62 188 116 193 120 9 8 -22 79 -35 79 -4 0 -92
-20 -198 -44 -105 -24 -191 -42 -191 -40 0 2 58 72 130 154 l129 150 -20 35
c-12 19 -24 35 -27 35 -4 0 -92 -52 -196 -115z"/>
<path d="M790 7755 c-48 -22 -68 -43 -96 -97 -62 -122 -10 -239 136 -307 121
-56 231 -25 284 80 42 85 31 163 -31 222 l-30 28 -16 -24 c-15 -23 -15 -26 8
-47 40 -37 50 -84 30 -136 -44 -114 -185 -122 -296 -15 -73 70 -78 135 -16
206 29 33 39 38 77 39 36 1 48 6 58 24 8 13 11 26 9 29 -14 13 -85 12 -117 -2z"/>
<path d="M9439 7377 c-187 -97 -196 -103 -186 -124 6 -13 14 -23 19 -23 14 0
386 189 393 199 6 11 -11 51 -23 51 -4 0 -95 -47 -203 -103z"/>
<path d="M555 7294 c-74 -38 -118 -115 -118 -207 0 -48 5 -65 29 -100 60 -85
201 -143 291 -118 64 17 94 41 128 103 39 70 41 154 7 211 -62 99 -245 159
-337 111z m171 -60 c96 -40 139 -97 132 -175 -12 -125 -125 -172 -256 -105
-70 36 -103 76 -109 130 -7 57 9 97 54 136 28 25 42 30 87 30 30 0 71 -7 92
-16z"/>
<path d="M9526 7221 c-110 -47 -201 -91 -203 -97 -2 -5 2 -17 9 -26 12 -16 28
-11 173 52 88 38 161 67 162 66 2 -1 -51 -83 -117 -181 -118 -177 -119 -178
-104 -207 8 -16 18 -27 22 -24 4 2 77 33 162 69 277 117 252 103 238 132 -6
14 -16 24 -22 21 -6 -2 -80 -34 -164 -70 -85 -36 -156 -66 -158 -66 -3 0 50
81 117 180 119 175 121 180 109 210 -7 16 -15 30 -19 29 -3 0 -96 -40 -205
-88z"/>
<path d="M9014 7048 c-17 -18 -157 -202 -311 -408 -400 -536 -590 -772 -866
-1077 -525 -580 -1077 -970 -1672 -1178 -65 -24 -121 -47 -122 -52 -2 -6 6
-13 19 -17 43 -11 268 -6 451 10 304 27 430 8 524 -79 42 -38 73 -84 73 -105
0 -5 -60 -13 -132 -16 -203 -11 -311 -24 -436 -52 -262 -59 -532 -157 -876
-321 -528 -251 -609 -288 -719 -334 -418 -172 -739 -211 -1022 -122 -87 28
-261 111 -251 120 3 4 57 21 120 39 362 104 1038 392 1204 513 l53 38 -178 7
c-332 13 -536 38 -811 102 -524 121 -1000 357 -1447 717 -269 217 -466 413
-896 897 -394 442 -512 540 -719 599 -53 15 -76 17 -81 9 -14 -22 -79 -305
-98 -428 -59 -369 -73 -963 -30 -1300 63 -500 209 -975 440 -1430 619 -1222
1750 -2078 3066 -2320 423 -78 932 -99 1323 -55 675 76 1320 312 1885 688
1083 720 1826 1911 1960 3139 22 199 31 689 16 848 -49 517 -199 1082 -408
1538 l-29 62 -30 -32z"/>
<path d="M9700 6776 c-176 -63 -205 -76 -202 -92 2 -10 7 -23 11 -27 6 -6 412
126 430 140 7 5 -18 53 -26 52 -5 0 -100 -33 -213 -73z"/>
<path d="M9870 6643 c-68 -22 -79 -45 -84 -174 -2 -52 -8 -105 -15 -117 -31
-59 -97 -48 -131 22 -33 69 -23 132 27 163 20 13 27 25 25 41 -4 28 -31 29
-66 1 -39 -30 -56 -71 -56 -131 1 -106 64 -188 146 -188 53 0 95 19 112 52 7
12 14 71 15 130 4 120 17 148 69 148 36 0 64 -28 78 -80 13 -50 6 -76 -31
-111 -20 -18 -26 -32 -22 -48 7 -28 25 -27 62 5 59 49 63 145 10 230 -29 47
-92 73 -139 57z"/>
<path d="M646 6505 c-16 -58 -33 -105 -38 -105 -5 0 -87 23 -183 50 -96 28
-180 50 -188 50 -8 0 -17 -11 -19 -25 -6 -28 -14 -25 294 -113 l138 -40 21 72
c11 39 29 100 39 135 21 71 19 81 -13 81 -20 0 -26 -12 -51 -105z"/>
<path d="M370 6233 c-118 -19 -216 -35 -216 -36 -1 -1 -5 -16 -8 -33 l-7 -31
194 -121 c107 -67 202 -124 211 -128 13 -5 16 0 16 24 0 27 -8 35 -60 67 -44
26 -59 42 -56 53 3 10 10 46 17 82 6 36 15 69 19 73 3 4 35 12 71 18 64 10 79
20 79 52 0 22 0 22 -260 -20z m50 -61 c0 -11 -22 -126 -25 -130 -4 -5 -175
100 -175 108 0 4 33 12 73 17 97 14 127 15 127 5z"/>
<path d="M10044 6248 c3 -13 9 -46 12 -74 l6 -51 -197 -38 -196 -38 6 -26 c4
-14 8 -27 9 -29 2 -1 89 14 195 34 105 20 194 34 197 31 3 -3 11 -35 17 -71
11 -65 16 -71 48 -58 14 6 12 25 -15 172 l-32 165 -28 3 c-26 3 -28 1 -22 -20z"/>
<path d="M90 5841 c0 -28 0 -28 78 -34 42 -4 124 -12 181 -19 l105 -11 -197
-99 -197 -98 0 -35 c0 -27 4 -35 18 -35 9 0 96 -9 192 -20 235 -26 240 -26
240 5 0 28 -2 28 -175 45 -206 20 -207 8 4 117 102 52 189 98 193 102 4 3 8
19 10 36 l3 30 -195 22 c-266 29 -260 30 -260 -6z"/>
<path d="M9930 5809 c-91 -10 -175 -18 -187 -18 -19 -1 -23 -7 -23 -32 l0 -31
63 6 c34 4 78 9 98 12 l36 5 6 -53 c16 -129 7 -152 -65 -163 -24 -4 -59 -11
-79 -16 -33 -8 -35 -11 -31 -44 2 -19 5 -35 7 -35 1 0 15 6 31 14 16 8 53 17
83 21 37 5 62 15 78 31 l24 24 26 -20 c18 -14 41 -20 75 -20 44 0 54 4 85 35
l36 36 -7 105 c-4 58 -9 118 -13 134 -7 36 -3 36 -243 9z m200 -61 c0 -13 3
-53 6 -89 6 -59 4 -69 -15 -88 -27 -27 -91 -29 -115 -2 -16 18 -36 107 -36
163 0 29 -9 27 133 36 22 2 27 -2 27 -20z"/>
<path d="M9750 5382 c0 -25 6 -29 70 -51 l71 -24 -3 -95 -3 -95 -60 -21 c-55
-19 -60 -24 -63 -53 -2 -18 -1 -33 1 -33 3 0 67 24 144 54 76 30 175 68 221
86 l83 32 -3 35 -3 35 -219 79 c-120 44 -222 79 -227 79 -5 0 -9 -12 -9 -28z
m291 -127 c113 -38 106 -35 89 -45 -33 -18 -179 -68 -184 -62 -3 3 -6 34 -6
69 0 46 4 63 13 63 8 0 47 -11 88 -25z"/>
<path d="M142 5354 c-145 -72 -146 -301 -2 -374 52 -27 146 -36 207 -21 111
28 163 93 163 206 0 80 -16 120 -63 162 -45 39 -91 53 -183 53 -56 0 -81 -5
-122 -26z m235 -54 c55 -24 83 -70 83 -133 0 -60 -21 -99 -70 -126 -78 -43
-202 -35 -259 18 -78 73 -52 210 49 250 43 17 151 12 197 -9z"/>
<path d="M10156 4899 l-7 -72 -97 7 c-336 22 -302 25 -306 -26 -1 -10 52 -17
198 -28 l199 -15 -2 -72 c-2 -71 -2 -73 22 -73 27 0 27 3 43 248 l7 102 -25 0
c-24 0 -26 -4 -32 -71z"/>
<path d="M335 4853 c-93 -6 -194 -11 -222 -12 -53 -1 -53 -1 -53 -32 l0 -32
93 6 c50 4 147 10 214 13 67 4 127 10 133 14 6 4 10 18 8 31 l-3 24 -170 -12z"/>
<path d="M83 4692 c-18 -3 -21 -8 -17 -35 3 -18 13 -95 22 -172 18 -138 18
-140 42 -137 13 1 25 4 26 5 2 2 -1 32 -6 67 -6 43 -6 66 1 71 9 5 355 50 382
49 4 0 7 14 7 30 0 22 -5 30 -17 30 -23 0 -329 -39 -364 -46 -27 -5 -27 -4
-34 65 -4 39 -10 72 -14 74 -3 2 -16 1 -28 -1z"/>
<path d="M9720 4560 c0 -17 5 -30 13 -30 6 -1 107 -13 224 -28 l211 -28 4 28
c4 23 0 29 -16 33 -22 4 -415 55 -428 55 -5 0 -8 -13 -8 -30z"/>
<path d="M9785 4398 c-84 -31 -135 -109 -135 -207 0 -105 55 -172 169 -205
164 -48 292 26 308 177 10 100 -35 177 -128 216 -59 26 -170 36 -214 19z m202
-79 c83 -40 113 -122 74 -203 -31 -63 -90 -91 -169 -82 -155 18 -226 115 -172
234 37 81 157 104 267 51z"/>
<path d="M355 4261 c-196 -124 -200 -128 -198 -160 0 -18 3 -34 5 -35 1 -2
110 -19 241 -38 l238 -35 -3 25 c-4 31 -18 38 -92 49 l-60 8 -18 80 c-9 44
-17 85 -18 90 0 6 27 26 60 44 43 25 60 41 60 55 -1 50 -15 45 -215 -83z m64
-112 c7 -33 10 -63 8 -65 -4 -4 -76 5 -176 22 l-34 5 88 54 c49 30 91 52 95
50 4 -3 13 -32 19 -66z"/>
<path d="M480 3889 c-85 -27 -178 -56 -206 -65 -46 -13 -51 -17 -46 -39 2 -14
10 -25 17 -25 8 0 85 22 172 50 87 27 162 50 168 50 5 0 -7 -17 -26 -37 -39
-41 -231 -271 -242 -289 -4 -7 -2 -25 4 -41 l10 -30 212 67 c209 66 229 76
208 108 -7 11 -41 4 -172 -37 -90 -28 -167 -51 -171 -51 -4 0 55 75 131 166
134 159 139 167 129 195 -5 16 -15 29 -21 28 -7 0 -82 -23 -167 -50z"/>
<path d="M9594 3925 c-4 -8 -4 -21 -1 -28 2 -7 77 -35 166 -61 152 -46 197
-66 154 -66 -10 0 -103 -24 -207 -53 -185 -52 -190 -54 -203 -85 l-13 -31 148
-46 c81 -26 180 -57 219 -70 l73 -24 6 26 c4 14 2 28 -4 32 -6 4 -83 29 -171
56 -88 27 -155 52 -150 56 6 3 99 30 208 59 198 54 199 54 209 85 l9 32 -212
67 c-116 36 -215 66 -218 66 -4 0 -10 -7 -13 -15z"/>
<path d="M909 2859 c-153 -91 -185 -119 -200 -169 -20 -68 33 -180 102 -216
63 -32 121 -17 270 71 74 43 138 82 142 86 10 8 -9 49 -23 49 -5 0 -58 -29
-117 -64 -150 -88 -167 -96 -208 -96 -44 0 -89 42 -104 97 -19 67 7 96 186
202 109 64 122 75 113 91 -6 10 -14 21 -18 24 -5 3 -69 -31 -143 -75z"/>
<path d="M9123 2800 l-81 -139 191 -113 c105 -62 193 -114 197 -116 3 -1 44
61 89 138 79 134 83 142 65 155 -11 8 -21 14 -24 15 -3 0 -31 -44 -62 -98 -88
-149 -73 -140 -146 -97 -34 21 -62 41 -62 45 0 5 27 54 59 109 56 94 59 102
41 111 -10 5 -21 10 -23 10 -3 0 -31 -44 -62 -97 -32 -54 -60 -100 -62 -103
-4 -4 -99 45 -116 60 -4 4 22 58 60 120 64 107 66 113 48 126 -10 8 -21 14
-24 14 -3 0 -43 -63 -88 -140z"/>
<path d="M8998 2548 c-49 -13 -123 -92 -138 -148 -23 -84 13 -170 95 -232 92
-69 178 -85 255 -45 59 29 101 91 108 156 6 63 -2 92 -34 130 -30 36 -39 38
-54 12 -8 -16 -5 -28 15 -57 14 -20 25 -51 25 -68 0 -67 -71 -136 -140 -136
-67 1 -173 68 -206 131 -47 92 32 219 127 205 28 -5 40 -1 55 15 16 17 16 22
4 29 -8 6 -23 10 -32 10 -9 0 -22 2 -30 4 -7 2 -30 -1 -50 -6z"/>
<path d="M1301 2373 c-19 -10 -44 -31 -55 -46 -20 -27 -20 -30 -4 -85 9 -31
26 -84 39 -117 27 -74 22 -107 -21 -125 -40 -17 -82 1 -118 48 -33 43 -37 109
-9 140 15 16 16 24 7 41 -14 27 -21 26 -49 -3 -47 -49 -44 -128 6 -200 42 -60
86 -86 145 -86 41 0 54 5 86 34 32 30 37 40 36 78 -1 24 -16 75 -33 115 -49
113 -39 166 31 166 23 0 40 -9 64 -36 44 -48 52 -81 28 -124 -13 -25 -15 -39
-8 -51 18 -27 33 -25 54 10 40 66 15 159 -60 219 -47 37 -95 45 -139 22z"/>
<path d="M939 2323 c-13 -9 -25 -17 -27 -19 -2 -1 4 -14 13 -28 16 -24 18 -24
41 -9 27 17 29 30 10 55 -12 16 -14 16 -37 1z"/>
<path d="M8730 2202 c-9 -4 -25 -14 -35 -22 -29 -22 -155 -166 -155 -176 0 -8
282 -258 326 -289 10 -7 20 -4 34 11 l21 20 -75 64 c-51 43 -73 68 -67 77 14
26 114 123 126 123 7 0 42 -20 78 -45 37 -25 70 -45 75 -45 5 0 19 11 32 25
16 17 19 25 9 25 -8 0 -47 23 -88 51 -52 35 -82 49 -98 46 -19 -4 -23 0 -23
22 0 73 -97 141 -160 113z m81 -81 c39 -39 37 -69 -10 -128 -71 -89 -68 -89
-134 -29 l-59 52 64 67 c72 76 94 82 139 38z"/>
<path d="M8370 1840 l-115 -109 160 -161 c88 -88 163 -159 166 -158 3 2 57 51
119 111 110 105 112 108 95 127 -17 19 -19 18 -112 -70 -51 -50 -97 -90 -101
-90 -4 0 -31 24 -61 54 l-52 53 90 85 c91 84 91 85 71 103 -21 19 -22 18 -109
-69 l-87 -87 -49 52 -48 52 95 93 c87 86 93 95 78 109 -9 8 -18 15 -21 15 -2
-1 -56 -50 -119 -110z"/>
<path d="M1714 1717 c-76 -83 -145 -159 -153 -170 -13 -18 -8 -25 55 -84 115
-106 177 -124 271 -77 88 43 162 145 163 223 0 57 -35 113 -118 188 l-78 71
-140 -151z m254 -33 c40 -56 24 -123 -47 -197 -76 -81 -141 -89 -218 -29 -26
21 -54 46 -62 55 -15 19 -16 18 137 184 l85 92 42 -37 c23 -20 51 -51 63 -68z"/>
<path d="M1311 1829 l-24 -20 20 -21 c21 -21 22 -21 46 -1 24 18 24 20 7 41
-22 26 -19 26 -49 1z"/>
<path d="M8170 1650 l-34 -28 53 -143 c30 -79 62 -166 72 -192 13 -32 15 -46
7 -41 -7 5 -84 55 -171 112 l-158 103 -35 -26 -34 -26 44 -57 c25 -31 90 -112
144 -178 97 -120 99 -122 120 -105 l22 16 -115 142 c-63 78 -115 144 -115 147
0 3 53 -29 118 -71 64 -42 139 -89 165 -106 l49 -30 20 20 20 21 -66 177 c-37
98 -65 180 -63 181 2 2 54 -59 116 -136 62 -77 116 -140 120 -140 5 0 15 8 24
18 15 16 6 29 -127 193 l-142 177 -34 -28z"/>
<path d="M2040 1408 c-72 -93 -134 -176 -136 -183 -3 -7 46 -52 121 -110 126
-97 127 -97 147 -78 19 20 19 20 -81 97 -55 42 -103 81 -106 87 -7 11 72 119
87 119 6 0 51 -32 101 -71 84 -67 91 -71 104 -54 7 11 13 21 13 24 0 3 -41 37
-90 74 -50 37 -90 73 -90 78 0 16 71 104 81 101 5 -1 52 -36 105 -77 92 -72
98 -75 115 -59 24 22 25 21 -120 132 l-119 91 -132 -171z"/>
<path d="M7768 1337 l-28 -22 49 -190 c27 -104 47 -191 46 -193 -1 -2 -67 50
-146 114 -79 65 -149 121 -156 126 -8 6 -24 1 -47 -14 l-35 -24 39 -60 c21
-32 77 -119 124 -192 80 -123 87 -131 106 -120 11 7 20 16 20 19 0 3 -42 71
-93 150 -119 184 -115 178 -91 158 10 -9 81 -66 157 -128 116 -93 141 -109
157 -101 10 6 21 14 24 18 2 4 -17 95 -44 201 -26 106 -45 189 -40 185 4 -5
51 -77 104 -161 l98 -152 24 16 c22 14 23 18 11 37 -8 11 -62 96 -122 189 -59
92 -112 167 -119 167 -6 0 -23 -10 -38 -23z"/>
<path d="M2363 1163 c-64 -98 -118 -185 -120 -193 -3 -13 34 -47 42 -38 1 2
24 37 50 78 27 41 49 76 50 78 2 2 31 -15 66 -38 91 -59 128 -68 176 -43 75
39 104 141 56 195 -18 20 -187 138 -198 138 -3 0 -58 -80 -122 -177z m192 71
c63 -42 95 -76 95 -100 0 -31 -47 -84 -74 -84 -19 0 -126 57 -149 79 -9 9 63
130 78 131 6 0 28 -12 50 -26z"/>
<path d="M2730 925 c-96 -85 -176 -158 -178 -163 -1 -5 8 -13 22 -20 21 -9 29
-5 78 38 l54 48 81 -44 80 -43 -8 -48 c-14 -83 -11 -99 16 -111 30 -14 26 -29
60 223 14 105 27 202 30 217 4 23 -1 30 -25 43 -16 8 -30 15 -32 15 -2 0 -82
-70 -178 -155z m163 -20 c-8 -55 -17 -101 -18 -103 -2 -2 -32 11 -66 29 l-64
32 80 73 c44 40 81 72 82 71 1 -2 -5 -47 -14 -102z"/>
<path d="M7211 1019 c-88 -44 -116 -89 -116 -183 1 -74 19 -123 72 -194 58
-77 170 -97 264 -46 62 34 95 74 108 134 24 109 -56 261 -161 304 -55 23 -98
20 -167 -15z m164 -49 c50 -31 102 -120 106 -180 3 -59 -3 -81 -32 -115 -56
-63 -147 -71 -210 -18 -41 35 -89 136 -89 188 0 111 130 183 225 125z"/>
<path d="M3057 756 c-48 -112 -87 -208 -87 -213 0 -13 42 -25 51 -15 3 4 21
42 39 85 19 42 39 77 45 77 23 0 152 -69 158 -84 4 -9 -5 -50 -18 -91 -14 -42
-25 -78 -25 -80 0 -5 56 -35 66 -35 3 0 4 7 0 15 -3 8 6 50 20 92 21 62 24 84
16 106 -8 21 -7 27 3 27 27 0 73 50 83 92 12 47 0 90 -34 119 -16 14 -135 70
-209 99 -19 7 -28 -9 -108 -194z m275 57 c27 -24 23 -79 -7 -108 -13 -14 -31
-25 -40 -25 -24 0 -157 54 -162 65 -2 6 10 41 27 78 l30 66 67 -30 c38 -17 76
-38 85 -46z"/>
<path d="M6805 841 c-125 -57 -157 -184 -83 -331 47 -92 96 -125 186 -125 78
0 118 19 165 77 23 29 31 50 34 90 5 62 -4 79 -35 71 -19 -4 -22 -12 -22 -50
0 -25 -7 -57 -16 -73 -40 -66 -136 -84 -199 -36 -74 57 -115 195 -78 266 37
71 141 97 203 52 24 -18 37 -21 56 -15 l25 8 -22 29 c-44 56 -138 72 -214 37z"/>
<path d="M3470 801 c0 -5 -2 -16 -5 -23 -4 -10 15 -20 64 -36 l70 -23 -66
-190 c-36 -104 -64 -191 -62 -193 2 -3 15 -7 29 -11 24 -6 26 -2 90 185 36
106 69 189 75 187 41 -16 125 -40 129 -36 2 2 6 13 10 24 5 19 -8 25 -152 73
-163 54 -182 58 -182 43z"/>
<path d="M6285 662 c-77 -19 -142 -37 -145 -39 -2 -2 20 -102 50 -223 l54
-219 26 6 c14 3 27 7 29 9 3 3 -20 98 -45 185 -4 13 10 20 63 33 150 37 145
35 137 59 -3 12 -7 23 -8 24 -1 1 -46 -9 -100 -23 -55 -14 -102 -21 -106 -17
-8 9 -30 94 -30 116 0 11 34 23 115 43 85 21 115 32 115 44 -1 37 -14 37 -155
2z"/>
<path d="M3831 653 c-39 -148 -91 -388 -87 -399 3 -8 14 -14 25 -14 17 0 25
23 62 180 23 99 44 179 45 177 2 -2 11 -90 20 -197 9 -107 17 -196 18 -197 0
0 13 -3 28 -5 26 -3 35 8 133 166 58 93 105 165 105 160 0 -5 -18 -87 -41
-183 -35 -143 -39 -175 -28 -182 35 -22 42 -5 94 214 29 120 49 219 46 221 -3
2 -22 7 -42 11 l-36 7 -104 -166 c-57 -91 -107 -166 -110 -166 -3 0 -12 88
-19 195 -7 108 -16 197 -19 199 -3 2 -23 6 -43 10 -36 7 -37 6 -47 -31z"/>
<path d="M5819 574 c-58 -17 -113 -76 -130 -136 -21 -79 8 -215 59 -271 47
-52 153 -73 233 -45 113 38 161 148 125 288 -37 145 -147 208 -287 164z m138
-51 c46 -21 79 -74 92 -146 18 -98 -10 -171 -76 -202 -49 -24 -125 -16 -159
16 -82 77 -96 235 -26 302 48 47 111 58 169 30z"/>
<path d="M4330 573 c0 -5 -14 -104 -30 -222 -17 -117 -29 -216 -26 -218 7 -7
316 -50 321 -44 3 2 5 14 5 26 0 24 -27 30 -205 51 l-57 7 7 71 c3 39 10 74
14 78 4 5 58 1 120 -8 62 -8 114 -14 116 -12 1 2 5 12 9 24 6 19 2 22 -41 28
-27 3 -82 11 -124 17 l-75 11 9 66 c4 37 10 68 11 70 2 1 52 -4 111 -13 149
-21 155 -20 155 10 0 14 -6 25 -12 25 -7 0 -71 9 -143 20 -145 22 -165 23
-165 13z"/>
<path d="M4706 388 c-3 -79 -9 -182 -12 -231 l-7 -87 31 0 30 0 7 180 c7 169
14 204 29 163 4 -10 51 -93 104 -185 93 -160 98 -168 128 -168 l31 0 6 68 c4
37 9 137 13 223 l7 156 -24 6 c-13 3 -25 4 -27 2 -2 -2 -8 -80 -13 -172 -5
-92 -10 -174 -12 -180 -1 -7 -51 73 -110 177 -106 186 -109 190 -141 190 l-33
0 -7 -142z"/>
<path d="M5133 513 c-16 -3 -23 -11 -23 -29 0 -23 2 -24 75 -24 l75 0 0 -78
c0 -44 3 -134 7 -200 l6 -122 29 0 28 0 -7 205 -6 205 71 0 c70 0 72 1 72 25
l0 25 -152 -1 c-84 -1 -163 -4 -175 -6z"/>
</g>
</svg>
