<?xml version="1.0" standalone="no"?>
<!DOCTYPE svg PUBLIC "-//W3C//DTD SVG 20010904//EN"
 "http://www.w3.org/TR/2001/REC-SVG-20010904/DTD/svg10.dtd">
<svg version="1.0" xmlns="http://www.w3.org/2000/svg"
 width="256.000000pt" height="256.000000pt" viewBox="0 0 256.000000 256.000000"
 preserveAspectRatio="xMidYMid meet">

<g transform="translate(0.000000,256.000000) scale(0.100000,-0.100000)"
fill="#000000" stroke="none">
<path d="M1397 1573 c-8 -10 -56 -146 -106 -303 -51 -156 -93 -285 -94 -287
-2 -1 -34 71 -71 160 -81 194 -89 207 -121 207 -28 0 -52 -30 -116 -142 l-43
-78 -82 0 c-74 0 -84 -2 -98 -22 -21 -30 -20 -44 4 -68 17 -17 33 -20 120 -20
115 0 116 1 169 94 19 32 37 54 41 49 4 -4 40 -87 80 -183 40 -96 81 -183 90
-194 21 -22 64 -16 78 12 5 9 47 137 93 284 46 147 86 268 89 268 3 0 38 -99
78 -220 67 -202 76 -221 99 -226 38 -10 52 4 109 102 l52 89 88 3 c96 3 124
16 124 58 0 42 -34 54 -148 54 -102 0 -104 0 -132 -30 -15 -16 -33 -43 -40
-60 -7 -16 -16 -30 -20 -30 -4 0 -41 106 -84 235 -42 129 -84 241 -92 250 -20
20 -47 19 -67 -2z"/>
</g>
</svg>
